<?xml version="1.0" encoding="UTF-8" standalone="no"?>
<!DOCTYPE svg PUBLIC "-//W3C//DTD SVG 1.1//EN"
 "http://www.w3.org/Graphics/SVG/1.1/DTD/svg11.dtd">
<!-- Generated by graphviz version 7.1.0 (20230122.1345)
 -->
<!-- Title: snakemake_dag Pages: 1 -->
<svg width="749pt" height="404pt"
 viewBox="0.00 0.00 749.02 404.00" xmlns="http://www.w3.org/2000/svg" xmlns:xlink="http://www.w3.org/1999/xlink">
<g id="graph0" class="graph" transform="scale(1 1) rotate(0) translate(4 400)">
<title>snakemake_dag</title>
<polygon fill="white" stroke="none" points="-4,4 -4,-400 745.02,-400 745.02,4 -4,4"/>
<!-- 0 -->
<g id="node1" class="node">
<title>0</title>
<path fill="none" stroke="#d8ac56" stroke-width="2" d="M408,-36C408,-36 378,-36 378,-36 372,-36 366,-30 366,-24 366,-24 366,-12 366,-12 366,-6 372,0 378,0 378,0 408,0 408,0 414,0 420,-6 420,-12 420,-12 420,-24 420,-24 420,-30 414,-36 408,-36"/>
<text text-anchor="middle" x="393" y="-15.5" font-family="sans" font-size="10.00">all</text>
</g>
<!-- 1 -->
<g id="node2" class="node">
<title>1</title>
<path fill="none" stroke="#d85656" stroke-width="2" d="M50,-108C50,-108 12,-108 12,-108 6,-108 0,-102 0,-96 0,-96 0,-84 0,-84 0,-78 6,-72 12,-72 12,-72 50,-72 50,-72 56,-72 62,-78 62,-84 62,-84 62,-96 62,-96 62,-102 56,-108 50,-108"/>
<text text-anchor="middle" x="31" y="-87.5" font-family="sans" font-size="10.00">coverage</text>
</g>
<!-- 1&#45;&gt;0 -->
<g id="edge1" class="edge">
<title>1&#45;&gt;0</title>
<path fill="none" stroke="grey" stroke-width="2" d="M62.63,-74.75C65.43,-73.74 68.25,-72.8 71,-72 169.89,-43.3 290.67,-28.63 352.41,-22.54"/>
<polygon fill="grey" stroke="grey" stroke-width="2" points="352.74,-26.03 362.36,-21.6 352.07,-19.06 352.74,-26.03"/>
</g>
<!-- 2 -->
<g id="node3" class="node">
<title>2</title>
<path fill="none" stroke="#c6d856" stroke-width="2" d="M142,-108C142,-108 92,-108 92,-108 86,-108 80,-102 80,-96 80,-96 80,-84 80,-84 80,-78 86,-72 92,-72 92,-72 142,-72 142,-72 148,-72 154,-78 154,-84 154,-84 154,-96 154,-96 154,-102 148,-108 142,-108"/>
<text text-anchor="middle" x="117" y="-87.5" font-family="sans" font-size="10.00">quality_raw</text>
</g>
<!-- 2&#45;&gt;0 -->
<g id="edge5" class="edge">
<title>2&#45;&gt;0</title>
<path fill="none" stroke="grey" stroke-width="2" d="M154.76,-75.99C159.2,-74.59 163.69,-73.22 168,-72 231.95,-53.85 307.35,-37 352.6,-27.36"/>
<polygon fill="grey" stroke="grey" stroke-width="2" points="353.06,-30.84 362.12,-25.35 351.61,-23.99 353.06,-30.84"/>
</g>
<!-- 3 -->
<g id="node4" class="node">
<title>3</title>
<path fill="none" stroke="#56a9d8" stroke-width="2" d="M296,-396C296,-396 222,-396 222,-396 216,-396 210,-390 210,-384 210,-384 210,-372 210,-372 210,-366 216,-360 222,-360 222,-360 296,-360 296,-360 302,-360 308,-366 308,-372 308,-372 308,-384 308,-384 308,-390 302,-396 296,-396"/>
<text text-anchor="middle" x="259" y="-375.5" font-family="sans" font-size="10.00">trimmomatic_pe</text>
</g>
<!-- 3&#45;&gt;0 -->
<g id="edge10" class="edge">
<title>3&#45;&gt;0</title>
<path fill="none" stroke="grey" stroke-width="2" d="M241.91,-359.39C219.23,-334.07 182,-284.92 182,-235 182,-235 182,-235 182,-161 182,-79.55 291.55,-41.75 352.78,-26.99"/>
<polygon fill="grey" stroke="grey" stroke-width="2" points="353.49,-30.41 362.46,-24.78 351.94,-23.59 353.49,-30.41"/>
</g>
<!-- 4 -->
<g id="node5" class="node">
<title>4</title>
<path fill="none" stroke="#56d873" stroke-width="2" d="M296,-180C296,-180 222,-180 222,-180 216,-180 210,-174 210,-168 210,-168 210,-156 210,-156 210,-150 216,-144 222,-144 222,-144 296,-144 296,-144 302,-144 308,-150 308,-156 308,-156 308,-168 308,-168 308,-174 302,-180 296,-180"/>
<text text-anchor="middle" x="259" y="-159.5" font-family="sans" font-size="10.00">quality_aftertrim</text>
</g>
<!-- 3&#45;&gt;4 -->
<g id="edge13" class="edge">
<title>3&#45;&gt;4</title>
<path fill="none" stroke="grey" stroke-width="2" d="M259,-359.12C259,-322.62 259,-239.13 259,-193.74"/>
<polygon fill="grey" stroke="grey" stroke-width="2" points="262.5,-194 259,-184 255.5,-194 262.5,-194"/>
</g>
<!-- 5 -->
<g id="node6" class="node">
<title>5</title>
<path fill="none" stroke="#70d856" stroke-width="2" d="M393.5,-324C393.5,-324 338.5,-324 338.5,-324 332.5,-324 326.5,-318 326.5,-312 326.5,-312 326.5,-300 326.5,-300 326.5,-294 332.5,-288 338.5,-288 338.5,-288 393.5,-288 393.5,-288 399.5,-288 405.5,-294 405.5,-300 405.5,-300 405.5,-312 405.5,-312 405.5,-318 399.5,-324 393.5,-324"/>
<text text-anchor="middle" x="366" y="-303.5" font-family="sans" font-size="10.00">downsample</text>
</g>
<!-- 3&#45;&gt;5 -->
<g id="edge14" class="edge">
<title>3&#45;&gt;5</title>
<path fill="none" stroke="grey" stroke-width="2" d="M286.28,-359.15C298.98,-350.84 314.3,-340.82 328.11,-331.79"/>
<polygon fill="grey" stroke="grey" stroke-width="2" points="329.79,-334.87 336.24,-326.47 325.95,-329.02 329.79,-334.87"/>
</g>
<!-- 4&#45;&gt;0 -->
<g id="edge8" class="edge">
<title>4&#45;&gt;0</title>
<path fill="none" stroke="grey" stroke-width="2" d="M269.37,-143.04C280.81,-124.13 300.46,-94.09 322,-72 331.77,-61.98 343.55,-52.4 354.69,-44.2"/>
<polygon fill="grey" stroke="grey" stroke-width="2" points="356.51,-47.2 362.62,-38.55 352.45,-41.5 356.51,-47.2"/>
</g>
<!-- 5&#45;&gt;0 -->
<g id="edge7" class="edge">
<title>5&#45;&gt;0</title>
<path fill="none" stroke="grey" stroke-width="2" d="M361.42,-287.47C358.98,-277.22 356.23,-263.97 355,-252 347.47,-178.66 369.29,-93.34 382.92,-49.09"/>
<polygon fill="grey" stroke="grey" stroke-width="2" points="386.24,-50.21 385.93,-39.62 379.57,-48.09 386.24,-50.21"/>
</g>
<!-- 6 -->
<g id="node7" class="node">
<title>6</title>
<path fill="none" stroke="#afd856" stroke-width="2" d="M416,-252C416,-252 376,-252 376,-252 370,-252 364,-246 364,-240 364,-240 364,-228 364,-228 364,-222 370,-216 376,-216 376,-216 416,-216 416,-216 422,-216 428,-222 428,-228 428,-228 428,-240 428,-240 428,-246 422,-252 416,-252"/>
<text text-anchor="middle" x="396" y="-231.5" font-family="sans" font-size="10.00">assembly</text>
</g>
<!-- 5&#45;&gt;6 -->
<g id="edge15" class="edge">
<title>5&#45;&gt;6</title>
<path fill="none" stroke="grey" stroke-width="2" d="M373.57,-287.34C376.5,-280.51 379.93,-272.5 383.21,-264.83"/>
<polygon fill="grey" stroke="grey" stroke-width="2" points="386.41,-266.25 387.14,-255.68 379.98,-263.5 386.41,-266.25"/>
</g>
<!-- 12 -->
<g id="node13" class="node">
<title>12</title>
<path fill="none" stroke="#5692d8" stroke-width="2" d="M625,-252C625,-252 595,-252 595,-252 589,-252 583,-246 583,-240 583,-240 583,-228 583,-228 583,-222 589,-216 595,-216 595,-216 625,-216 625,-216 631,-216 637,-222 637,-228 637,-228 637,-240 637,-240 637,-246 631,-252 625,-252"/>
<text text-anchor="middle" x="610" y="-231.5" font-family="sans" font-size="10.00">kraken</text>
</g>
<!-- 5&#45;&gt;12 -->
<g id="edge21" class="edge">
<title>5&#45;&gt;12</title>
<path fill="none" stroke="grey" stroke-width="2" d="M406.29,-293.44C451.6,-280.44 524.74,-259.46 569.95,-246.49"/>
<polygon fill="grey" stroke="grey" stroke-width="2" points="570.64,-249.93 579.28,-243.81 568.7,-243.21 570.64,-249.93"/>
</g>
<!-- 6&#45;&gt;0 -->
<g id="edge4" class="edge">
<title>6&#45;&gt;0</title>
<path fill="none" stroke="grey" stroke-width="2" d="M395.75,-215.12C395.24,-178.62 394.07,-95.13 393.43,-49.74"/>
<polygon fill="grey" stroke="grey" stroke-width="2" points="396.93,-49.95 393.29,-40 389.94,-50.05 396.93,-49.95"/>
</g>
<!-- 7 -->
<g id="node8" class="node">
<title>7</title>
<path fill="none" stroke="#5673d8" stroke-width="2" d="M518,-180C518,-180 488,-180 488,-180 482,-180 476,-174 476,-168 476,-168 476,-156 476,-156 476,-150 482,-144 488,-144 488,-144 518,-144 518,-144 524,-144 530,-150 530,-156 530,-156 530,-168 530,-168 530,-174 524,-180 518,-180"/>
<text text-anchor="middle" x="503" y="-159.5" font-family="sans" font-size="10.00">bioawk</text>
</g>
<!-- 6&#45;&gt;7 -->
<g id="edge16" class="edge">
<title>6&#45;&gt;7</title>
<path fill="none" stroke="grey" stroke-width="2" d="M423.28,-215.15C435.98,-206.84 451.3,-196.82 465.11,-187.79"/>
<polygon fill="grey" stroke="grey" stroke-width="2" points="466.79,-190.87 473.24,-182.47 462.95,-185.02 466.79,-190.87"/>
</g>
<!-- 7&#45;&gt;0 -->
<g id="edge12" class="edge">
<title>7&#45;&gt;0</title>
<path fill="none" stroke="grey" stroke-width="2" d="M475.2,-145.52C460.5,-136.2 443.05,-123.21 431,-108 417.23,-90.62 407.56,-67.51 401.42,-49.19"/>
<polygon fill="grey" stroke="grey" stroke-width="2" points="404.79,-48.24 398.47,-39.74 398.11,-50.33 404.79,-48.24"/>
</g>
<!-- 8 -->
<g id="node9" class="node">
<title>8</title>
<path fill="none" stroke="#56c9d8" stroke-width="2" d="M482,-108C482,-108 452,-108 452,-108 446,-108 440,-102 440,-96 440,-96 440,-84 440,-84 440,-78 446,-72 452,-72 452,-72 482,-72 482,-72 488,-72 494,-78 494,-84 494,-84 494,-96 494,-96 494,-102 488,-108 482,-108"/>
<text text-anchor="middle" x="467" y="-87.5" font-family="sans" font-size="10.00">prokka</text>
</g>
<!-- 7&#45;&gt;8 -->
<g id="edge17" class="edge">
<title>7&#45;&gt;8</title>
<path fill="none" stroke="grey" stroke-width="2" d="M493.92,-143.34C490.32,-136.34 486.09,-128.12 482.06,-120.28"/>
<polygon fill="grey" stroke="grey" stroke-width="2" points="485.28,-118.89 477.59,-111.59 479.05,-122.09 485.28,-118.89"/>
</g>
<!-- 9 -->
<g id="node10" class="node">
<title>9</title>
<path fill="none" stroke="#8fd856" stroke-width="2" d="M554,-108C554,-108 524,-108 524,-108 518,-108 512,-102 512,-96 512,-96 512,-84 512,-84 512,-78 518,-72 524,-72 524,-72 554,-72 554,-72 560,-72 566,-78 566,-84 566,-84 566,-96 566,-96 566,-102 560,-108 554,-108"/>
<text text-anchor="middle" x="539" y="-87.5" font-family="sans" font-size="10.00">quast</text>
</g>
<!-- 7&#45;&gt;9 -->
<g id="edge18" class="edge">
<title>7&#45;&gt;9</title>
<path fill="none" stroke="grey" stroke-width="2" d="M512.08,-143.34C515.68,-136.34 519.91,-128.12 523.94,-120.28"/>
<polygon fill="grey" stroke="grey" stroke-width="2" points="526.95,-122.09 528.41,-111.59 520.72,-118.89 526.95,-122.09"/>
</g>
<!-- 10 -->
<g id="node11" class="node">
<title>10</title>
<path fill="none" stroke="#d88d56" stroke-width="2" d="M636,-108C636,-108 596,-108 596,-108 590,-108 584,-102 584,-96 584,-96 584,-84 584,-84 584,-78 590,-72 596,-72 596,-72 636,-72 636,-72 642,-72 648,-78 648,-84 648,-84 648,-96 648,-96 648,-102 642,-108 636,-108"/>
<text text-anchor="middle" x="616" y="-87.5" font-family="sans" font-size="10.00">amrfinder</text>
</g>
<!-- 7&#45;&gt;10 -->
<g id="edge19" class="edge">
<title>7&#45;&gt;10</title>
<path fill="none" stroke="grey" stroke-width="2" d="M530.93,-143.7C544.58,-135.24 561.24,-124.92 576.19,-115.66"/>
<polygon fill="grey" stroke="grey" stroke-width="2" points="577.98,-118.67 584.64,-110.43 574.29,-112.72 577.98,-118.67"/>
</g>
<!-- 11 -->
<g id="node12" class="node">
<title>11</title>
<path fill="none" stroke="#d87556" stroke-width="2" d="M708,-108C708,-108 678,-108 678,-108 672,-108 666,-102 666,-96 666,-96 666,-84 666,-84 666,-78 672,-72 678,-72 678,-72 708,-72 708,-72 714,-72 720,-78 720,-84 720,-84 720,-96 720,-96 720,-102 714,-108 708,-108"/>
<text text-anchor="middle" x="693" y="-87.5" font-family="sans" font-size="10.00">mlst</text>
</g>
<!-- 7&#45;&gt;11 -->
<g id="edge20" class="edge">
<title>7&#45;&gt;11</title>
<path fill="none" stroke="grey" stroke-width="2" d="M530.88,-152.42C559.62,-143.36 605.9,-128.18 653.45,-109.24"/>
<polygon fill="grey" stroke="grey" stroke-width="2" points="654.46,-112.61 662.42,-105.62 651.84,-106.12 654.46,-112.61"/>
</g>
<!-- 8&#45;&gt;0 -->
<g id="edge9" class="edge">
<title>8&#45;&gt;0</title>
<path fill="none" stroke="grey" stroke-width="2" d="M448.33,-71.34C440.15,-63.6 430.38,-54.36 421.34,-45.81"/>
<polygon fill="grey" stroke="grey" stroke-width="2" points="423.79,-43.31 414.12,-38.98 418.98,-48.4 423.79,-43.31"/>
</g>
<!-- 9&#45;&gt;0 -->
<g id="edge6" class="edge">
<title>9&#45;&gt;0</title>
<path fill="none" stroke="grey" stroke-width="2" d="M511.19,-75.67C488.87,-64.96 457.25,-49.8 432.33,-37.85"/>
<polygon fill="grey" stroke="grey" stroke-width="2" points="433.96,-34.76 423.43,-33.59 430.94,-41.07 433.96,-34.76"/>
</g>
<!-- 10&#45;&gt;0 -->
<g id="edge2" class="edge">
<title>10&#45;&gt;0</title>
<path fill="none" stroke="grey" stroke-width="2" d="M583,-74.95C580.31,-73.92 577.62,-72.92 575,-72 526.82,-55.05 470.16,-39.17 433.02,-29.3"/>
<polygon fill="grey" stroke="grey" stroke-width="2" points="434.23,-26 423.67,-26.83 432.45,-32.77 434.23,-26"/>
</g>
<!-- 11&#45;&gt;0 -->
<g id="edge3" class="edge">
<title>11&#45;&gt;0</title>
<path fill="none" stroke="grey" stroke-width="2" d="M665.37,-75.13C662.58,-73.98 659.76,-72.91 657,-72 580.04,-46.53 486.21,-31.25 433.68,-24.04"/>
<polygon fill="grey" stroke="grey" stroke-width="2" points="434.31,-20.59 423.94,-22.74 433.38,-27.53 434.31,-20.59"/>
</g>
<!-- 12&#45;&gt;0 -->
<g id="edge11" class="edge">
<title>12&#45;&gt;0</title>
<path fill="none" stroke="grey" stroke-width="2" d="M637.83,-216.66C685.12,-186.91 772.02,-122.34 729,-72 691.38,-27.99 514.27,-20.3 433.42,-19.12"/>
<polygon fill="grey" stroke="grey" stroke-width="2" points="433.92,-15.62 423.88,-19.01 433.84,-22.62 433.92,-15.62"/>
</g>
</g>
</svg>
