<?xml version="1.0" encoding="UTF-8" standalone="no"?>
<!DOCTYPE svg PUBLIC "-//W3C//DTD SVG 1.1//EN"
 "http://www.w3.org/Graphics/SVG/1.1/DTD/svg11.dtd">
<!-- Generated by graphviz version 7.1.0 (20230122.1345)
 -->
<!-- Title: snakemake_dag Pages: 1 -->
<svg width="504pt" height="116pt"
 viewBox="0.00 0.00 504.00 116.00" xmlns="http://www.w3.org/2000/svg" xmlns:xlink="http://www.w3.org/1999/xlink">
<g id="graph0" class="graph" transform="scale(1 1) rotate(0) translate(4 112)">
<title>snakemake_dag</title>
<polygon fill="white" stroke="none" points="-4,4 -4,-112 500,-112 500,4 -4,4"/>
<!-- 0 -->
<g id="node1" class="node">
<title>0</title>
<path fill="none" stroke="#59d856" stroke-width="2" d="M294,-36C294,-36 264,-36 264,-36 258,-36 252,-30 252,-24 252,-24 252,-12 252,-12 252,-6 258,0 264,0 264,0 294,0 294,0 300,0 306,-6 306,-12 306,-12 306,-24 306,-24 306,-30 300,-36 294,-36"/>
<text text-anchor="middle" x="279" y="-15.5" font-family="sans" font-size="10.00">all</text>
</g>
<!-- 1 -->
<g id="node2" class="node">
<title>1</title>
<path fill="none" stroke="#d89556" stroke-width="2" d="M84,-108C84,-108 12,-108 12,-108 6,-108 0,-102 0,-96 0,-96 0,-84 0,-84 0,-78 6,-72 12,-72 12,-72 84,-72 84,-72 90,-72 96,-78 96,-84 96,-84 96,-96 96,-96 96,-102 90,-108 84,-108"/>
<text text-anchor="middle" x="48" y="-87.5" font-family="sans" font-size="10.00">coverage_report</text>
</g>
<!-- 1&#45;&gt;0 -->
<g id="edge2" class="edge">
<title>1&#45;&gt;0</title>
<path fill="none" stroke="grey" stroke-width="2" d="M96.99,-74.15C139.2,-61.36 199.4,-43.12 238.82,-31.18"/>
<polygon fill="grey" stroke="grey" stroke-width="2" points="239.64,-34.58 248.2,-28.33 237.61,-27.89 239.64,-34.58"/>
</g>
<!-- 2 -->
<g id="node3" class="node">
<title>2</title>
<path fill="none" stroke="#56d89a" stroke-width="2" d="M186,-108C186,-108 126,-108 126,-108 120,-108 114,-102 114,-96 114,-96 114,-84 114,-84 114,-78 120,-72 126,-72 126,-72 186,-72 186,-72 192,-72 198,-78 198,-84 198,-84 198,-96 198,-96 198,-102 192,-108 186,-108"/>
<text text-anchor="middle" x="156" y="-87.5" font-family="sans" font-size="10.00">kraken_report</text>
</g>
<!-- 2&#45;&gt;0 -->
<g id="edge4" class="edge">
<title>2&#45;&gt;0</title>
<path fill="none" stroke="grey" stroke-width="2" d="M187.36,-71.15C203.32,-62.07 222.88,-50.94 239.82,-41.3"/>
<polygon fill="grey" stroke="grey" stroke-width="2" points="241.47,-44.39 248.43,-36.4 238,-38.3 241.47,-44.39"/>
</g>
<!-- 3 -->
<g id="node4" class="node">
<title>3</title>
<path fill="none" stroke="#d85656" stroke-width="2" d="M258,-108C258,-108 228,-108 228,-108 222,-108 216,-102 216,-96 216,-96 216,-84 216,-84 216,-78 222,-72 228,-72 228,-72 258,-72 258,-72 264,-72 270,-78 270,-84 270,-84 270,-96 270,-96 270,-102 264,-108 258,-108"/>
<text text-anchor="middle" x="243" y="-87.5" font-family="sans" font-size="10.00">multiqc</text>
</g>
<!-- 3&#45;&gt;0 -->
<g id="edge1" class="edge">
<title>3&#45;&gt;0</title>
<path fill="none" stroke="grey" stroke-width="2" d="M252.08,-71.34C255.68,-64.34 259.91,-56.12 263.94,-48.28"/>
<polygon fill="grey" stroke="grey" stroke-width="2" points="266.95,-50.09 268.41,-39.59 260.72,-46.89 266.95,-50.09"/>
</g>
<!-- 4 -->
<g id="node5" class="node">
<title>4</title>
<path fill="none" stroke="#569ad8" stroke-width="2" d="M330,-108C330,-108 300,-108 300,-108 294,-108 288,-102 288,-96 288,-96 288,-84 288,-84 288,-78 294,-72 300,-72 300,-72 330,-72 330,-72 336,-72 342,-78 342,-84 342,-84 342,-96 342,-96 342,-102 336,-108 330,-108"/>
<text text-anchor="middle" x="315" y="-87.5" font-family="sans" font-size="10.00">mlst</text>
</g>
<!-- 4&#45;&gt;0 -->
<g id="edge6" class="edge">
<title>4&#45;&gt;0</title>
<path fill="none" stroke="grey" stroke-width="2" d="M305.92,-71.34C302.32,-64.34 298.09,-56.12 294.06,-48.28"/>
<polygon fill="grey" stroke="grey" stroke-width="2" points="297.28,-46.89 289.59,-39.59 291.05,-50.09 297.28,-46.89"/>
</g>
<!-- 5 -->
<g id="node6" class="node">
<title>5</title>
<path fill="none" stroke="#d6d856" stroke-width="2" d="M412,-108C412,-108 372,-108 372,-108 366,-108 360,-102 360,-96 360,-96 360,-84 360,-84 360,-78 366,-72 372,-72 372,-72 412,-72 412,-72 418,-72 424,-78 424,-84 424,-84 424,-96 424,-96 424,-102 418,-108 412,-108"/>
<text text-anchor="middle" x="392" y="-87.5" font-family="sans" font-size="10.00">Summary</text>
</g>
<!-- 5&#45;&gt;0 -->
<g id="edge3" class="edge">
<title>5&#45;&gt;0</title>
<path fill="none" stroke="grey" stroke-width="2" d="M363.19,-71.15C349.44,-62.63 332.77,-52.31 317.91,-43.1"/>
<polygon fill="grey" stroke="grey" stroke-width="2" points="319.89,-40.21 309.55,-37.92 316.2,-46.16 319.89,-40.21"/>
</g>
<!-- 6 -->
<g id="node7" class="node">
<title>6</title>
<path fill="none" stroke="#56d8d8" stroke-width="2" d="M484,-108C484,-108 454,-108 454,-108 448,-108 442,-102 442,-96 442,-96 442,-84 442,-84 442,-78 448,-72 454,-72 454,-72 484,-72 484,-72 490,-72 496,-78 496,-84 496,-84 496,-96 496,-96 496,-102 490,-108 484,-108"/>
<text text-anchor="middle" x="469" y="-87.5" font-family="sans" font-size="10.00">plot</text>
</g>
<!-- 6&#45;&gt;0 -->
<g id="edge5" class="edge">
<title>6&#45;&gt;0</title>
<path fill="none" stroke="grey" stroke-width="2" d="M441.23,-75.52C438.46,-74.29 435.69,-73.09 433,-72 394.9,-56.5 350.38,-41.51 319.03,-31.44"/>
<polygon fill="grey" stroke="grey" stroke-width="2" points="320.35,-28.19 309.76,-28.49 318.23,-34.86 320.35,-28.19"/>
</g>
</g>
</svg>
