<?xml version="1.0" encoding="UTF-8" standalone="no"?>
<!DOCTYPE svg PUBLIC "-//W3C//DTD SVG 1.1//EN"
 "http://www.w3.org/Graphics/SVG/1.1/DTD/svg11.dtd">
<!-- Generated by graphviz version 7.1.0 (20230122.1345)
 -->
<!-- Title: snakemake_dag Pages: 1 -->
<svg width="689pt" height="404pt"
 viewBox="0.00 0.00 689.48 404.00" xmlns="http://www.w3.org/2000/svg" xmlns:xlink="http://www.w3.org/1999/xlink">
<g id="graph0" class="graph" transform="scale(1 1) rotate(0) translate(4 400)">
<title>snakemake_dag</title>
<polygon fill="white" stroke="none" points="-4,4 -4,-400 685.48,-400 685.48,4 -4,4"/>
<!-- 0 -->
<g id="node1" class="node">
<title>0</title>
<path fill="none" stroke="#56c1d8" stroke-width="2" d="M349,-36C349,-36 319,-36 319,-36 313,-36 307,-30 307,-24 307,-24 307,-12 307,-12 307,-6 313,0 319,0 319,0 349,0 349,0 355,0 361,-6 361,-12 361,-12 361,-24 361,-24 361,-30 355,-36 349,-36"/>
<text text-anchor="middle" x="334" y="-15.5" font-family="sans" font-size="10.00">all</text>
</g>
<!-- 1 -->
<g id="node2" class="node">
<title>1</title>
<path fill="none" stroke="#568ad8" stroke-width="2" d="M50,-108C50,-108 12,-108 12,-108 6,-108 0,-102 0,-96 0,-96 0,-84 0,-84 0,-78 6,-72 12,-72 12,-72 50,-72 50,-72 56,-72 62,-78 62,-84 62,-84 62,-96 62,-96 62,-102 56,-108 50,-108"/>
<text text-anchor="middle" x="31" y="-87.5" font-family="sans" font-size="10.00">coverage</text>
</g>
<!-- 1&#45;&gt;0 -->
<g id="edge3" class="edge">
<title>1&#45;&gt;0</title>
<path fill="none" stroke="grey" stroke-width="2" d="M62.66,-74.86C65.45,-73.82 68.26,-72.85 71,-72 148.15,-48.1 241.45,-32.26 293.63,-24.53"/>
<polygon fill="grey" stroke="grey" stroke-width="2" points="293.89,-28.03 303.29,-23.13 292.89,-21.1 293.89,-28.03"/>
</g>
<!-- 2 -->
<g id="node3" class="node">
<title>2</title>
<path fill="none" stroke="#56d89a" stroke-width="2" d="M142,-108C142,-108 92,-108 92,-108 86,-108 80,-102 80,-96 80,-96 80,-84 80,-84 80,-78 86,-72 92,-72 92,-72 142,-72 142,-72 148,-72 154,-78 154,-84 154,-84 154,-96 154,-96 154,-102 148,-108 142,-108"/>
<text text-anchor="middle" x="117" y="-87.5" font-family="sans" font-size="10.00">quality_raw</text>
</g>
<!-- 2&#45;&gt;0 -->
<g id="edge8" class="edge">
<title>2&#45;&gt;0</title>
<path fill="none" stroke="grey" stroke-width="2" d="M154.86,-76.32C159.29,-74.86 163.74,-73.39 168,-72 210.97,-57.98 260.33,-42.27 293.98,-31.62"/>
<polygon fill="grey" stroke="grey" stroke-width="2" points="294.7,-35.07 303.18,-28.71 292.59,-28.39 294.7,-35.07"/>
</g>
<!-- 3 -->
<g id="node4" class="node">
<title>3</title>
<path fill="none" stroke="#97d856" stroke-width="2" d="M296,-396C296,-396 222,-396 222,-396 216,-396 210,-390 210,-384 210,-384 210,-372 210,-372 210,-366 216,-360 222,-360 222,-360 296,-360 296,-360 302,-360 308,-366 308,-372 308,-372 308,-384 308,-384 308,-390 302,-396 296,-396"/>
<text text-anchor="middle" x="259" y="-375.5" font-family="sans" font-size="10.00">trimmomatic_pe</text>
</g>
<!-- 3&#45;&gt;0 -->
<g id="edge7" class="edge">
<title>3&#45;&gt;0</title>
<path fill="none" stroke="grey" stroke-width="2" d="M232.99,-359.1C221.51,-349.9 208.87,-337.73 201,-324 180.89,-288.91 182,-275.45 182,-235 182,-235 182,-235 182,-161 182,-99.47 249.33,-56.94 294.36,-35.38"/>
<polygon fill="grey" stroke="grey" stroke-width="2" points="295.74,-38.6 303.37,-31.24 292.82,-32.24 295.74,-38.6"/>
</g>
<!-- 4 -->
<g id="node5" class="node">
<title>4</title>
<path fill="none" stroke="#b6d856" stroke-width="2" d="M296,-324C296,-324 222,-324 222,-324 216,-324 210,-318 210,-312 210,-312 210,-300 210,-300 210,-294 216,-288 222,-288 222,-288 296,-288 296,-288 302,-288 308,-294 308,-300 308,-300 308,-312 308,-312 308,-318 302,-324 296,-324"/>
<text text-anchor="middle" x="259" y="-303.5" font-family="sans" font-size="10.00">quality_aftertrim</text>
</g>
<!-- 3&#45;&gt;4 -->
<g id="edge14" class="edge">
<title>3&#45;&gt;4</title>
<path fill="none" stroke="grey" stroke-width="2" d="M259,-359.34C259,-352.75 259,-345.08 259,-337.67"/>
<polygon fill="grey" stroke="grey" stroke-width="2" points="262.5,-337.93 259,-327.93 255.5,-337.93 262.5,-337.93"/>
</g>
<!-- 5 -->
<g id="node6" class="node">
<title>5</title>
<path fill="none" stroke="#d88d56" stroke-width="2" d="M404.5,-324C404.5,-324 349.5,-324 349.5,-324 343.5,-324 337.5,-318 337.5,-312 337.5,-312 337.5,-300 337.5,-300 337.5,-294 343.5,-288 349.5,-288 349.5,-288 404.5,-288 404.5,-288 410.5,-288 416.5,-294 416.5,-300 416.5,-300 416.5,-312 416.5,-312 416.5,-318 410.5,-324 404.5,-324"/>
<text text-anchor="middle" x="377" y="-303.5" font-family="sans" font-size="10.00">downsample</text>
</g>
<!-- 3&#45;&gt;5 -->
<g id="edge15" class="edge">
<title>3&#45;&gt;5</title>
<path fill="none" stroke="grey" stroke-width="2" d="M289.08,-359.15C303.37,-350.68 320.66,-340.42 336.11,-331.25"/>
<polygon fill="grey" stroke="grey" stroke-width="2" points="337.55,-334.47 344.37,-326.36 333.98,-328.45 337.55,-334.47"/>
</g>
<!-- 4&#45;&gt;0 -->
<g id="edge5" class="edge">
<title>4&#45;&gt;0</title>
<path fill="none" stroke="grey" stroke-width="2" d="M263.69,-287.11C276.19,-239.46 310.38,-109.05 326.01,-49.45"/>
<polygon fill="grey" stroke="grey" stroke-width="2" points="329.39,-50.37 328.54,-39.81 322.62,-48.6 329.39,-50.37"/>
</g>
<!-- 5&#45;&gt;0 -->
<g id="edge4" class="edge">
<title>5&#45;&gt;0</title>
<path fill="none" stroke="grey" stroke-width="2" d="M361.92,-287.07C354.6,-277.33 346.45,-264.7 342,-252 317.81,-182.93 323.8,-95.21 329.4,-49.63"/>
<polygon fill="grey" stroke="grey" stroke-width="2" points="332.85,-50.28 330.7,-39.9 325.91,-49.35 332.85,-50.28"/>
</g>
<!-- 6 -->
<g id="node7" class="node">
<title>6</title>
<path fill="none" stroke="#d85656" stroke-width="2" d="M403,-252C403,-252 363,-252 363,-252 357,-252 351,-246 351,-240 351,-240 351,-228 351,-228 351,-222 357,-216 363,-216 363,-216 403,-216 403,-216 409,-216 415,-222 415,-228 415,-228 415,-240 415,-240 415,-246 409,-252 403,-252"/>
<text text-anchor="middle" x="383" y="-231.5" font-family="sans" font-size="10.00">assembly</text>
</g>
<!-- 5&#45;&gt;6 -->
<g id="edge16" class="edge">
<title>5&#45;&gt;6</title>
<path fill="none" stroke="grey" stroke-width="2" d="M378.51,-287.34C379.08,-280.75 379.74,-273.08 380.37,-265.67"/>
<polygon fill="grey" stroke="grey" stroke-width="2" points="383.84,-266.18 381.21,-255.92 376.87,-265.58 383.84,-266.18"/>
</g>
<!-- 12 -->
<g id="node13" class="node">
<title>12</title>
<path fill="none" stroke="#56d8b9" stroke-width="2" d="M607,-252C607,-252 577,-252 577,-252 571,-252 565,-246 565,-240 565,-240 565,-228 565,-228 565,-222 571,-216 577,-216 577,-216 607,-216 607,-216 613,-216 619,-222 619,-228 619,-228 619,-240 619,-240 619,-246 613,-252 607,-252"/>
<text text-anchor="middle" x="592" y="-231.5" font-family="sans" font-size="10.00">kraken</text>
</g>
<!-- 5&#45;&gt;12 -->
<g id="edge22" class="edge">
<title>5&#45;&gt;12</title>
<path fill="none" stroke="grey" stroke-width="2" d="M417.44,-291.83C455.91,-279.31 513.45,-260.57 551.83,-248.08"/>
<polygon fill="grey" stroke="grey" stroke-width="2" points="552.75,-251.46 561.18,-245.03 550.59,-244.8 552.75,-251.46"/>
</g>
<!-- 6&#45;&gt;0 -->
<g id="edge1" class="edge">
<title>6&#45;&gt;0</title>
<path fill="none" stroke="grey" stroke-width="2" d="M374.18,-215.34C362.84,-191.62 343.7,-147.83 336,-108 332.31,-88.94 331.76,-67.15 332.16,-49.91"/>
<polygon fill="grey" stroke="grey" stroke-width="2" points="335.66,-50.07 332.54,-39.94 328.66,-49.8 335.66,-50.07"/>
</g>
<!-- 7 -->
<g id="node8" class="node">
<title>7</title>
<path fill="none" stroke="#61d856" stroke-width="2" d="M440,-180C440,-180 410,-180 410,-180 404,-180 398,-174 398,-168 398,-168 398,-156 398,-156 398,-150 404,-144 410,-144 410,-144 440,-144 440,-144 446,-144 452,-150 452,-156 452,-156 452,-168 452,-168 452,-174 446,-180 440,-180"/>
<text text-anchor="middle" x="425" y="-159.5" font-family="sans" font-size="10.00">bioawk</text>
</g>
<!-- 6&#45;&gt;7 -->
<g id="edge17" class="edge">
<title>6&#45;&gt;7</title>
<path fill="none" stroke="grey" stroke-width="2" d="M393.6,-215.34C397.84,-208.26 402.85,-199.92 407.6,-192"/>
<polygon fill="grey" stroke="grey" stroke-width="2" points="410.56,-193.87 412.7,-183.5 404.56,-190.27 410.56,-193.87"/>
</g>
<!-- 13 -->
<g id="node14" class="node">
<title>13</title>
<path fill="none" stroke="#56a9d8" stroke-width="2" d="M572,-180C572,-180 542,-180 542,-180 536,-180 530,-174 530,-168 530,-168 530,-156 530,-156 530,-150 536,-144 542,-144 542,-144 572,-144 572,-144 578,-144 584,-150 584,-156 584,-156 584,-168 584,-168 584,-174 578,-180 572,-180"/>
<text text-anchor="middle" x="557" y="-159.5" font-family="sans" font-size="10.00">skani</text>
</g>
<!-- 6&#45;&gt;13 -->
<g id="edge23" class="edge">
<title>6&#45;&gt;13</title>
<path fill="none" stroke="grey" stroke-width="2" d="M415.73,-219.83C444.45,-208.28 486.32,-191.43 517.02,-179.08"/>
<polygon fill="grey" stroke="grey" stroke-width="2" points="518.23,-182.37 526.21,-175.39 515.62,-175.87 518.23,-182.37"/>
</g>
<!-- 7&#45;&gt;0 -->
<g id="edge9" class="edge">
<title>7&#45;&gt;0</title>
<path fill="none" stroke="grey" stroke-width="2" d="M397.08,-147.02C381.78,-137.94 363.78,-124.69 353,-108 341.8,-90.65 337.08,-67.82 335.15,-49.63"/>
<polygon fill="grey" stroke="grey" stroke-width="2" points="338.65,-49.5 334.39,-39.81 331.67,-50.05 338.65,-49.5"/>
</g>
<!-- 8 -->
<g id="node9" class="node">
<title>8</title>
<path fill="none" stroke="#56d8d0" stroke-width="2" d="M404,-108C404,-108 374,-108 374,-108 368,-108 362,-102 362,-96 362,-96 362,-84 362,-84 362,-78 368,-72 374,-72 374,-72 404,-72 404,-72 410,-72 416,-78 416,-84 416,-84 416,-96 416,-96 416,-102 410,-108 404,-108"/>
<text text-anchor="middle" x="389" y="-87.5" font-family="sans" font-size="10.00">prokka</text>
</g>
<!-- 7&#45;&gt;8 -->
<g id="edge18" class="edge">
<title>7&#45;&gt;8</title>
<path fill="none" stroke="grey" stroke-width="2" d="M415.92,-143.34C412.32,-136.34 408.09,-128.12 404.06,-120.28"/>
<polygon fill="grey" stroke="grey" stroke-width="2" points="407.28,-118.89 399.59,-111.59 401.05,-122.09 407.28,-118.89"/>
</g>
<!-- 9 -->
<g id="node10" class="node">
<title>9</title>
<path fill="none" stroke="#d8c356" stroke-width="2" d="M476,-108C476,-108 446,-108 446,-108 440,-108 434,-102 434,-96 434,-96 434,-84 434,-84 434,-78 440,-72 446,-72 446,-72 476,-72 476,-72 482,-72 488,-78 488,-84 488,-84 488,-96 488,-96 488,-102 482,-108 476,-108"/>
<text text-anchor="middle" x="461" y="-87.5" font-family="sans" font-size="10.00">quast</text>
</g>
<!-- 7&#45;&gt;9 -->
<g id="edge19" class="edge">
<title>7&#45;&gt;9</title>
<path fill="none" stroke="grey" stroke-width="2" d="M434.08,-143.34C437.68,-136.34 441.91,-128.12 445.94,-120.28"/>
<polygon fill="grey" stroke="grey" stroke-width="2" points="448.95,-122.09 450.41,-111.59 442.72,-118.89 448.95,-122.09"/>
</g>
<!-- 10 -->
<g id="node11" class="node">
<title>10</title>
<path fill="none" stroke="#56d863" stroke-width="2" d="M558,-108C558,-108 518,-108 518,-108 512,-108 506,-102 506,-96 506,-96 506,-84 506,-84 506,-78 512,-72 518,-72 518,-72 558,-72 558,-72 564,-72 570,-78 570,-84 570,-84 570,-96 570,-96 570,-102 564,-108 558,-108"/>
<text text-anchor="middle" x="538" y="-87.5" font-family="sans" font-size="10.00">amrfinder</text>
</g>
<!-- 7&#45;&gt;10 -->
<g id="edge20" class="edge">
<title>7&#45;&gt;10</title>
<path fill="none" stroke="grey" stroke-width="2" d="M452.93,-143.7C466.58,-135.24 483.24,-124.92 498.19,-115.66"/>
<polygon fill="grey" stroke="grey" stroke-width="2" points="499.98,-118.67 506.64,-110.43 496.29,-112.72 499.98,-118.67"/>
</g>
<!-- 11 -->
<g id="node12" class="node">
<title>11</title>
<path fill="none" stroke="#d8ac56" stroke-width="2" d="M630,-108C630,-108 600,-108 600,-108 594,-108 588,-102 588,-96 588,-96 588,-84 588,-84 588,-78 594,-72 600,-72 600,-72 630,-72 630,-72 636,-72 642,-78 642,-84 642,-84 642,-96 642,-96 642,-102 636,-108 630,-108"/>
<text text-anchor="middle" x="615" y="-87.5" font-family="sans" font-size="10.00">mlst</text>
</g>
<!-- 7&#45;&gt;11 -->
<g id="edge21" class="edge">
<title>7&#45;&gt;11</title>
<path fill="none" stroke="grey" stroke-width="2" d="M452.88,-152.42C481.62,-143.36 527.9,-128.18 575.45,-109.24"/>
<polygon fill="grey" stroke="grey" stroke-width="2" points="576.46,-112.61 584.42,-105.62 573.84,-106.12 576.46,-112.61"/>
</g>
<!-- 8&#45;&gt;0 -->
<g id="edge10" class="edge">
<title>8&#45;&gt;0</title>
<path fill="none" stroke="grey" stroke-width="2" d="M375.12,-71.34C369.3,-63.93 362.4,-55.14 355.92,-46.9"/>
<polygon fill="grey" stroke="grey" stroke-width="2" points="358.87,-44.98 349.94,-39.28 353.36,-49.31 358.87,-44.98"/>
</g>
<!-- 9&#45;&gt;0 -->
<g id="edge13" class="edge">
<title>9&#45;&gt;0</title>
<path fill="none" stroke="grey" stroke-width="2" d="M433.13,-73.64C415.51,-63.93 392.48,-51.23 373.06,-40.53"/>
<polygon fill="grey" stroke="grey" stroke-width="2" points="374.9,-37.55 364.46,-35.79 371.53,-43.68 374.9,-37.55"/>
</g>
<!-- 10&#45;&gt;0 -->
<g id="edge11" class="edge">
<title>10&#45;&gt;0</title>
<path fill="none" stroke="grey" stroke-width="2" d="M505.42,-75.22C502.58,-74.1 499.75,-73.01 497,-72 455.6,-56.71 407.46,-41.35 374.29,-31.13"/>
<polygon fill="grey" stroke="grey" stroke-width="2" points="375.4,-27.81 364.81,-28.23 373.35,-34.5 375.4,-27.81"/>
</g>
<!-- 11&#45;&gt;0 -->
<g id="edge6" class="edge">
<title>11&#45;&gt;0</title>
<path fill="none" stroke="grey" stroke-width="2" d="M587.35,-75.18C584.57,-74.02 581.75,-72.93 579,-72 508.79,-48.18 423.51,-32.59 374.32,-24.83"/>
<polygon fill="grey" stroke="grey" stroke-width="2" points="375.15,-21.41 364.74,-23.35 374.09,-28.33 375.15,-21.41"/>
</g>
<!-- 12&#45;&gt;0 -->
<g id="edge2" class="edge">
<title>12&#45;&gt;0</title>
<path fill="none" stroke="grey" stroke-width="2" d="M612.61,-215.09C646.62,-183.41 707.14,-116.64 669,-72 631.5,-28.1 454.91,-20.36 374.3,-19.14"/>
<polygon fill="grey" stroke="grey" stroke-width="2" points="374.84,-15.64 364.8,-19.02 374.76,-22.64 374.84,-15.64"/>
</g>
<!-- 13&#45;&gt;0 -->
<g id="edge12" class="edge">
<title>13&#45;&gt;0</title>
<path fill="none" stroke="grey" stroke-width="2" d="M584.71,-153.75C606.99,-146.29 636.83,-132.27 651,-108 659.07,-94.18 661.34,-84.21 651,-72 616.05,-30.72 452.25,-21.57 374.79,-19.56"/>
<polygon fill="grey" stroke="grey" stroke-width="2" points="374.92,-16.06 364.84,-19.33 374.76,-23.06 374.92,-16.06"/>
</g>
</g>
</svg>
