<?xml version="1.0" encoding="UTF-8" standalone="no"?>
<!DOCTYPE svg PUBLIC "-//W3C//DTD SVG 1.1//EN"
 "http://www.w3.org/Graphics/SVG/1.1/DTD/svg11.dtd">
<!-- Generated by graphviz version 2.40.1 (0)
 -->
<!-- Title: snakemake_dag Pages: 1 -->
<svg width="886pt" height="692pt"
 viewBox="0.00 0.00 886.00 692.00" xmlns="http://www.w3.org/2000/svg" xmlns:xlink="http://www.w3.org/1999/xlink">
<g id="graph0" class="graph" transform="scale(1 1) rotate(0) translate(4 688)">
<title>snakemake_dag</title>
<polygon fill="#ffffff" stroke="transparent" points="-4,4 -4,-688 882,-688 882,4 -4,4"/>
<!-- 0 -->
<g id="node1" class="node">
<title>0</title>
<path fill="none" stroke="#56d863" stroke-width="2" d="M433,-36C433,-36 403,-36 403,-36 397,-36 391,-30 391,-24 391,-24 391,-12 391,-12 391,-6 397,0 403,0 403,0 433,0 433,0 439,0 445,-6 445,-12 445,-12 445,-24 445,-24 445,-30 439,-36 433,-36"/>
<text text-anchor="middle" x="418" y="-15.5" font-family="sans" font-size="10.00" fill="#000000">all</text>
</g>
<!-- 1 -->
<g id="node2" class="node">
<title>1</title>
<path fill="none" stroke="#d85656" stroke-width="2" d="M414,-396C414,-396 376,-396 376,-396 370,-396 364,-390 364,-384 364,-384 364,-372 364,-372 364,-366 370,-360 376,-360 376,-360 414,-360 414,-360 420,-360 426,-366 426,-372 426,-372 426,-384 426,-384 426,-390 420,-396 414,-396"/>
<text text-anchor="middle" x="395" y="-375.5" font-family="sans" font-size="10.00" fill="#000000">coverage</text>
</g>
<!-- 1&#45;&gt;0 -->
<g id="edge2" class="edge">
<title>1&#45;&gt;0</title>
<path fill="none" stroke="#c0c0c0" stroke-width="2" d="M372.329,-359.96C346.4458,-337.7605 305.5522,-297.3869 289,-252 283.5181,-236.9684 285.9555,-231.7077 289,-216 302.1288,-148.2643 305.1492,-126.8544 347,-72 356.6167,-59.3953 369.8963,-48.2362 382.3714,-39.3821"/>
<polygon fill="#c0c0c0" stroke="#c0c0c0" stroke-width="2" points="384.5252,-42.15 390.8245,-33.6312 380.5877,-36.3624 384.5252,-42.15"/>
</g>
<!-- 12 -->
<g id="node13" class="node">
<title>12</title>
<path fill="none" stroke="#d8d356" stroke-width="2" d="M451,-324C451,-324 379,-324 379,-324 373,-324 367,-318 367,-312 367,-312 367,-300 367,-300 367,-294 373,-288 379,-288 379,-288 451,-288 451,-288 457,-288 463,-294 463,-300 463,-300 463,-312 463,-312 463,-318 457,-324 451,-324"/>
<text text-anchor="middle" x="415" y="-303.5" font-family="sans" font-size="10.00" fill="#000000">coverage_report</text>
</g>
<!-- 1&#45;&gt;12 -->
<g id="edge26" class="edge">
<title>1&#45;&gt;12</title>
<path fill="none" stroke="#c0c0c0" stroke-width="2" d="M400.0468,-359.8314C402.2094,-352.0463 404.7853,-342.7729 407.1848,-334.1347"/>
<polygon fill="#c0c0c0" stroke="#c0c0c0" stroke-width="2" points="410.581,-334.9852 409.8852,-324.4133 403.8364,-333.1117 410.581,-334.9852"/>
</g>
<!-- 2 -->
<g id="node3" class="node">
<title>2</title>
<path fill="none" stroke="#afd856" stroke-width="2" d="M866,-108C866,-108 816,-108 816,-108 810,-108 804,-102 804,-96 804,-96 804,-84 804,-84 804,-78 810,-72 816,-72 816,-72 866,-72 866,-72 872,-72 878,-78 878,-84 878,-84 878,-96 878,-96 878,-102 872,-108 866,-108"/>
<text text-anchor="middle" x="841" y="-87.5" font-family="sans" font-size="10.00" fill="#000000">quality_raw</text>
</g>
<!-- 2&#45;&gt;0 -->
<g id="edge6" class="edge">
<title>2&#45;&gt;0</title>
<path fill="none" stroke="#c0c0c0" stroke-width="2" d="M803.9312,-75.9748C799.2814,-74.4953 794.5582,-73.1238 790,-72 669.7095,-42.3431 523.2519,-26.9754 455.5892,-21.0132"/>
<polygon fill="#c0c0c0" stroke="#c0c0c0" stroke-width="2" points="455.6862,-17.5086 445.4224,-20.1363 455.0846,-24.4828 455.6862,-17.5086"/>
</g>
<!-- 3 -->
<g id="node4" class="node">
<title>3</title>
<path fill="none" stroke="#56d8a9" stroke-width="2" d="M115,-684C115,-684 41,-684 41,-684 35,-684 29,-678 29,-672 29,-672 29,-660 29,-660 29,-654 35,-648 41,-648 41,-648 115,-648 115,-648 121,-648 127,-654 127,-660 127,-660 127,-672 127,-672 127,-678 121,-684 115,-684"/>
<text text-anchor="middle" x="78" y="-663.5" font-family="sans" font-size="10.00" fill="#000000">trimmomatic_pe</text>
</g>
<!-- 3&#45;&gt;0 -->
<g id="edge15" class="edge">
<title>3&#45;&gt;0</title>
<path fill="none" stroke="#c0c0c0" stroke-width="2" d="M60.3006,-647.7014C37.2873,-621.8978 0,-572.3246 0,-522 0,-522 0,-522 0,-162 0,-100.5364 49.3837,-98.165 105,-72 153.5092,-49.1785 308.8921,-29.8727 380.8193,-21.9072"/>
<polygon fill="#c0c0c0" stroke="#c0c0c0" stroke-width="2" points="381.2431,-25.3818 390.8033,-20.8152 380.482,-18.4233 381.2431,-25.3818"/>
</g>
<!-- 4 -->
<g id="node5" class="node">
<title>4</title>
<path fill="none" stroke="#56b9d8" stroke-width="2" d="M115.5,-540C115.5,-540 40.5,-540 40.5,-540 34.5,-540 28.5,-534 28.5,-528 28.5,-528 28.5,-516 28.5,-516 28.5,-510 34.5,-504 40.5,-504 40.5,-504 115.5,-504 115.5,-504 121.5,-504 127.5,-510 127.5,-516 127.5,-516 127.5,-528 127.5,-528 127.5,-534 121.5,-540 115.5,-540"/>
<text text-anchor="middle" x="78" y="-519.5" font-family="sans" font-size="10.00" fill="#000000">quality_aftertrim</text>
</g>
<!-- 3&#45;&gt;4 -->
<g id="edge18" class="edge">
<title>3&#45;&gt;4</title>
<path fill="none" stroke="#c0c0c0" stroke-width="2" d="M78,-647.7623C78,-623.201 78,-579.2474 78,-550.3541"/>
<polygon fill="#c0c0c0" stroke="#c0c0c0" stroke-width="2" points="81.5001,-550.0896 78,-540.0896 74.5001,-550.0897 81.5001,-550.0896"/>
</g>
<!-- 5 -->
<g id="node6" class="node">
<title>5</title>
<path fill="none" stroke="#d8bc56" stroke-width="2" d="M183.5,-612C183.5,-612 128.5,-612 128.5,-612 122.5,-612 116.5,-606 116.5,-600 116.5,-600 116.5,-588 116.5,-588 116.5,-582 122.5,-576 128.5,-576 128.5,-576 183.5,-576 183.5,-576 189.5,-576 195.5,-582 195.5,-588 195.5,-588 195.5,-600 195.5,-600 195.5,-606 189.5,-612 183.5,-612"/>
<text text-anchor="middle" x="156" y="-591.5" font-family="sans" font-size="10.00" fill="#000000">downsample</text>
</g>
<!-- 3&#45;&gt;5 -->
<g id="edge19" class="edge">
<title>3&#45;&gt;5</title>
<path fill="none" stroke="#c0c0c0" stroke-width="2" d="M97.6827,-647.8314C107.1051,-639.1337 118.5401,-628.5783 128.7796,-619.1265"/>
<polygon fill="#c0c0c0" stroke="#c0c0c0" stroke-width="2" points="131.3495,-621.5175 136.3236,-612.1628 126.6016,-616.3738 131.3495,-621.5175"/>
</g>
<!-- 4&#45;&gt;0 -->
<g id="edge16" class="edge">
<title>4&#45;&gt;0</title>
<path fill="none" stroke="#c0c0c0" stroke-width="2" d="M82.144,-503.9265C88.0021,-476.7528 98,-423.6844 98,-378 98,-378 98,-378 98,-162 98,-117.4756 106.6804,-99.1099 142,-72 178.9483,-43.64 314.1267,-27.5583 380.5934,-21.2058"/>
<polygon fill="#c0c0c0" stroke="#c0c0c0" stroke-width="2" points="381.0132,-24.6819 390.6454,-20.2694 380.3639,-17.7121 381.0132,-24.6819"/>
</g>
<!-- 5&#45;&gt;0 -->
<g id="edge14" class="edge">
<title>5&#45;&gt;0</title>
<path fill="none" stroke="#c0c0c0" stroke-width="2" d="M156,-575.8146C156,-548.4983 156,-495.25 156,-450 156,-450 156,-450 156,-162 156,-115.3524 172.6453,-99.9397 210,-72 236.8883,-51.8887 328.7969,-33.3622 380.9979,-24.1345"/>
<polygon fill="#c0c0c0" stroke="#c0c0c0" stroke-width="2" points="381.6258,-27.5779 390.8777,-22.4152 380.4256,-20.6816 381.6258,-27.5779"/>
</g>
<!-- 6 -->
<g id="node7" class="node">
<title>6</title>
<path fill="none" stroke="#97d856" stroke-width="2" d="M290,-540C290,-540 250,-540 250,-540 244,-540 238,-534 238,-528 238,-528 238,-516 238,-516 238,-510 244,-504 250,-504 250,-504 290,-504 290,-504 296,-504 302,-510 302,-516 302,-516 302,-528 302,-528 302,-534 296,-540 290,-540"/>
<text text-anchor="middle" x="270" y="-519.5" font-family="sans" font-size="10.00" fill="#000000">assembly</text>
</g>
<!-- 5&#45;&gt;6 -->
<g id="edge20" class="edge">
<title>5&#45;&gt;6</title>
<path fill="none" stroke="#c0c0c0" stroke-width="2" d="M184.767,-575.8314C199.2133,-566.7074 216.8965,-555.539 232.404,-545.7449"/>
<polygon fill="#c0c0c0" stroke="#c0c0c0" stroke-width="2" points="234.6563,-548.462 241.2422,-540.1628 230.9183,-542.5436 234.6563,-548.462"/>
</g>
<!-- 6&#45;&gt;0 -->
<g id="edge7" class="edge">
<title>6&#45;&gt;0</title>
<path fill="none" stroke="#c0c0c0" stroke-width="2" d="M252.7544,-503.6186C230.3312,-477.719 194,-428.0348 194,-378 194,-378 194,-378 194,-162 194,-74.1941 317.2936,-37.4147 380.9374,-24.2785"/>
<polygon fill="#c0c0c0" stroke="#c0c0c0" stroke-width="2" points="381.8456,-27.6669 390.9804,-22.2997 380.4924,-20.7989 381.8456,-27.6669"/>
</g>
<!-- 7 -->
<g id="node8" class="node">
<title>7</title>
<path fill="none" stroke="#56a2d8" stroke-width="2" d="M340,-468C340,-468 310,-468 310,-468 304,-468 298,-462 298,-456 298,-456 298,-444 298,-444 298,-438 304,-432 310,-432 310,-432 340,-432 340,-432 346,-432 352,-438 352,-444 352,-444 352,-456 352,-456 352,-462 346,-468 340,-468"/>
<text text-anchor="middle" x="325" y="-447.5" font-family="sans" font-size="10.00" fill="#000000">bioawk</text>
</g>
<!-- 6&#45;&gt;7 -->
<g id="edge21" class="edge">
<title>6&#45;&gt;7</title>
<path fill="none" stroke="#c0c0c0" stroke-width="2" d="M283.8788,-503.8314C290.2136,-495.5386 297.8384,-485.557 304.7926,-476.4533"/>
<polygon fill="#c0c0c0" stroke="#c0c0c0" stroke-width="2" points="307.6452,-478.4847 310.9343,-468.4133 302.0825,-474.2353 307.6452,-478.4847"/>
</g>
<!-- 11 -->
<g id="node12" class="node">
<title>11</title>
<path fill="none" stroke="#56d8c9" stroke-width="2" d="M724,-324C724,-324 694,-324 694,-324 688,-324 682,-318 682,-312 682,-312 682,-300 682,-300 682,-294 688,-288 694,-288 694,-288 724,-288 724,-288 730,-288 736,-294 736,-300 736,-300 736,-312 736,-312 736,-318 730,-324 724,-324"/>
<text text-anchor="middle" x="709" y="-303.5" font-family="sans" font-size="10.00" fill="#000000">skani</text>
</g>
<!-- 6&#45;&gt;11 -->
<g id="edge25" class="edge">
<title>6&#45;&gt;11</title>
<path fill="none" stroke="#c0c0c0" stroke-width="2" d="M302.3111,-515.2388C366.3602,-500.8133 512.3553,-462.7693 618,-396 645.4044,-378.6799 671.1296,-351.8695 688.1885,-332.0117"/>
<polygon fill="#c0c0c0" stroke="#c0c0c0" stroke-width="2" points="690.9658,-334.1472 694.7277,-324.2428 685.6103,-329.6395 690.9658,-334.1472"/>
</g>
<!-- 7&#45;&gt;0 -->
<g id="edge17" class="edge">
<title>7&#45;&gt;0</title>
<path fill="none" stroke="#c0c0c0" stroke-width="2" d="M352.0721,-446.9539C407.5417,-440.2326 531.6146,-422.5871 564,-396 597.8321,-368.2252 604,-349.7727 604,-306 604,-306 604,-306 604,-162 604,-118.9187 598.9908,-101.9261 568,-72 537.1887,-42.2471 488.8152,-28.7328 455.3713,-22.6969"/>
<polygon fill="#c0c0c0" stroke="#c0c0c0" stroke-width="2" points="455.5168,-19.1733 445.0787,-20.9889 454.3708,-26.0788 455.5168,-19.1733"/>
</g>
<!-- 8 -->
<g id="node9" class="node">
<title>8</title>
<path fill="none" stroke="#5673d8" stroke-width="2" d="M264,-180C264,-180 234,-180 234,-180 228,-180 222,-174 222,-168 222,-168 222,-156 222,-156 222,-150 228,-144 234,-144 234,-144 264,-144 264,-144 270,-144 276,-150 276,-156 276,-156 276,-168 276,-168 276,-174 270,-180 264,-180"/>
<text text-anchor="middle" x="249" y="-159.5" font-family="sans" font-size="10.00" fill="#000000">prokka</text>
</g>
<!-- 7&#45;&gt;8 -->
<g id="edge22" class="edge">
<title>7&#45;&gt;8</title>
<path fill="none" stroke="#c0c0c0" stroke-width="2" d="M311.6006,-431.9598C295.0301,-408.4903 267.5958,-365.5592 256,-324 243.357,-278.6874 244.2372,-223.5025 246.3728,-190.6421"/>
<polygon fill="#c0c0c0" stroke="#c0c0c0" stroke-width="2" points="249.883,-190.6307 247.1274,-180.4005 242.9019,-190.1163 249.883,-190.6307"/>
</g>
<!-- 9 -->
<g id="node10" class="node">
<title>9</title>
<path fill="none" stroke="#56d892" stroke-width="2" d="M340,-252C340,-252 310,-252 310,-252 304,-252 298,-246 298,-240 298,-240 298,-228 298,-228 298,-222 304,-216 310,-216 310,-216 340,-216 340,-216 346,-216 352,-222 352,-228 352,-228 352,-240 352,-240 352,-246 346,-252 340,-252"/>
<text text-anchor="middle" x="325" y="-231.5" font-family="sans" font-size="10.00" fill="#000000">quast</text>
</g>
<!-- 7&#45;&gt;9 -->
<g id="edge23" class="edge">
<title>7&#45;&gt;9</title>
<path fill="none" stroke="#c0c0c0" stroke-width="2" d="M325,-431.9555C325,-394.3938 325,-307.5541 325,-262.4103"/>
<polygon fill="#c0c0c0" stroke="#c0c0c0" stroke-width="2" points="328.5001,-262.145 325,-252.1451 321.5001,-262.1451 328.5001,-262.145"/>
</g>
<!-- 10 -->
<g id="node11" class="node">
<title>10</title>
<path fill="none" stroke="#568ad8" stroke-width="2" d="M543,-396C543,-396 513,-396 513,-396 507,-396 501,-390 501,-384 501,-384 501,-372 501,-372 501,-366 507,-360 513,-360 513,-360 543,-360 543,-360 549,-360 555,-366 555,-372 555,-372 555,-384 555,-384 555,-390 549,-396 543,-396"/>
<text text-anchor="middle" x="528" y="-375.5" font-family="sans" font-size="10.00" fill="#000000">mlst</text>
</g>
<!-- 7&#45;&gt;10 -->
<g id="edge24" class="edge">
<title>7&#45;&gt;10</title>
<path fill="none" stroke="#c0c0c0" stroke-width="2" d="M352.3775,-440.2898C388.1943,-427.5863 451.0869,-405.2795 491.087,-391.0923"/>
<polygon fill="#c0c0c0" stroke="#c0c0c0" stroke-width="2" points="492.4781,-394.3126 500.7329,-387.6711 490.1381,-387.7153 492.4781,-394.3126"/>
</g>
<!-- 8&#45;&gt;0 -->
<g id="edge3" class="edge">
<title>8&#45;&gt;0</title>
<path fill="none" stroke="#c0c0c0" stroke-width="2" d="M253.0616,-143.817C258.3912,-123.8117 269.5634,-91.8674 290,-72 315.1056,-47.5936 352.8994,-33.5027 380.9177,-25.8765"/>
<polygon fill="#c0c0c0" stroke="#c0c0c0" stroke-width="2" points="381.9399,-29.2276 390.7563,-23.3521 380.2001,-22.4472 381.9399,-29.2276"/>
</g>
<!-- 9&#45;&gt;0 -->
<g id="edge13" class="edge">
<title>9&#45;&gt;0</title>
<path fill="none" stroke="#c0c0c0" stroke-width="2" d="M326.5338,-215.8732C329.8139,-184.6953 339.5068,-119.6755 366,-72 371.8186,-61.5292 380.1749,-51.6074 388.4919,-43.1933"/>
<polygon fill="#c0c0c0" stroke="#c0c0c0" stroke-width="2" points="390.9612,-45.6744 395.726,-36.2114 386.1,-40.6376 390.9612,-45.6744"/>
</g>
<!-- 10&#45;&gt;0 -->
<g id="edge9" class="edge">
<title>10&#45;&gt;0</title>
<path fill="none" stroke="#c0c0c0" stroke-width="2" d="M555.0164,-360.633C588.7278,-336.6024 642,-289.8003 642,-234 642,-234 642,-234 642,-162 642,-120.6022 647.2271,-101.3181 618,-72 595.2543,-49.1834 506.3917,-31.8551 455.0939,-23.508"/>
<polygon fill="#c0c0c0" stroke="#c0c0c0" stroke-width="2" points="455.4862,-20.0265 445.0604,-21.9119 454.3864,-26.9396 455.4862,-20.0265"/>
</g>
<!-- 15 -->
<g id="node16" class="node">
<title>15</title>
<path fill="none" stroke="#d86e56" stroke-width="2" d="M552.5,-324C552.5,-324 503.5,-324 503.5,-324 497.5,-324 491.5,-318 491.5,-312 491.5,-312 491.5,-300 491.5,-300 491.5,-294 497.5,-288 503.5,-288 503.5,-288 552.5,-288 552.5,-288 558.5,-288 564.5,-294 564.5,-300 564.5,-300 564.5,-312 564.5,-312 564.5,-318 558.5,-324 552.5,-324"/>
<text text-anchor="middle" x="528" y="-303.5" font-family="sans" font-size="10.00" fill="#000000">mlst_report</text>
</g>
<!-- 10&#45;&gt;15 -->
<g id="edge30" class="edge">
<title>10&#45;&gt;15</title>
<path fill="none" stroke="#c0c0c0" stroke-width="2" d="M528,-359.8314C528,-352.131 528,-342.9743 528,-334.4166"/>
<polygon fill="#c0c0c0" stroke="#c0c0c0" stroke-width="2" points="531.5001,-334.4132 528,-324.4133 524.5001,-334.4133 531.5001,-334.4132"/>
</g>
<!-- 11&#45;&gt;0 -->
<g id="edge4" class="edge">
<title>11&#45;&gt;0</title>
<path fill="none" stroke="#c0c0c0" stroke-width="2" d="M731.2213,-287.9032C741.1308,-278.3888 751.74,-265.8349 757,-252 762.6861,-237.0445 760.8046,-231.5411 757,-216 739.8412,-145.9094 739.6115,-115.4514 682,-72 646.6194,-45.3155 519.0193,-28.5523 455.0711,-21.6403"/>
<polygon fill="#c0c0c0" stroke="#c0c0c0" stroke-width="2" points="455.3222,-18.1475 445.0098,-20.5775 454.5868,-25.1087 455.3222,-18.1475"/>
</g>
<!-- 13 -->
<g id="node14" class="node">
<title>13</title>
<path fill="none" stroke="#d8a456" stroke-width="2" d="M735.5,-252C735.5,-252 682.5,-252 682.5,-252 676.5,-252 670.5,-246 670.5,-240 670.5,-240 670.5,-228 670.5,-228 670.5,-222 676.5,-216 682.5,-216 682.5,-216 735.5,-216 735.5,-216 741.5,-216 747.5,-222 747.5,-228 747.5,-228 747.5,-240 747.5,-240 747.5,-246 741.5,-252 735.5,-252"/>
<text text-anchor="middle" x="709" y="-231.5" font-family="sans" font-size="10.00" fill="#000000">skani_report</text>
</g>
<!-- 11&#45;&gt;13 -->
<g id="edge27" class="edge">
<title>11&#45;&gt;13</title>
<path fill="none" stroke="#c0c0c0" stroke-width="2" d="M709,-287.8314C709,-280.131 709,-270.9743 709,-262.4166"/>
<polygon fill="#c0c0c0" stroke="#c0c0c0" stroke-width="2" points="712.5001,-262.4132 709,-252.4133 705.5001,-262.4133 712.5001,-262.4132"/>
</g>
<!-- 12&#45;&gt;0 -->
<g id="edge1" class="edge">
<title>12&#45;&gt;0</title>
<path fill="none" stroke="#c0c0c0" stroke-width="2" d="M408.1805,-287.7996C404.6719,-277.4645 400.7683,-264.1925 399,-252 388.2991,-178.217 402.5906,-90.4061 411.6225,-46.2833"/>
<polygon fill="#c0c0c0" stroke="#c0c0c0" stroke-width="2" points="415.0905,-46.8 413.7324,-36.2926 408.2416,-45.3536 415.0905,-46.8"/>
</g>
<!-- 14 -->
<g id="node15" class="node">
<title>14</title>
<path fill="none" stroke="#56d87b" stroke-width="2" d="M450,-252C450,-252 420,-252 420,-252 414,-252 408,-246 408,-240 408,-240 408,-228 408,-228 408,-222 414,-216 420,-216 420,-216 450,-216 450,-216 456,-216 462,-222 462,-228 462,-228 462,-240 462,-240 462,-246 456,-252 450,-252"/>
<text text-anchor="middle" x="435" y="-231.5" font-family="sans" font-size="10.00" fill="#000000">multiqc</text>
</g>
<!-- 12&#45;&gt;14 -->
<g id="edge28" class="edge">
<title>12&#45;&gt;14</title>
<path fill="none" stroke="#c0c0c0" stroke-width="2" d="M420.0468,-287.8314C422.2094,-280.0463 424.7853,-270.7729 427.1848,-262.1347"/>
<polygon fill="#c0c0c0" stroke="#c0c0c0" stroke-width="2" points="430.581,-262.9852 429.8852,-252.4133 423.8364,-261.1117 430.581,-262.9852"/>
</g>
<!-- 16 -->
<g id="node17" class="node">
<title>16</title>
<path fill="none" stroke="#56d0d8" stroke-width="2" d="M518,-180C518,-180 478,-180 478,-180 472,-180 466,-174 466,-168 466,-168 466,-156 466,-156 466,-150 472,-144 478,-144 478,-144 518,-144 518,-144 524,-144 530,-150 530,-156 530,-156 530,-168 530,-168 530,-174 524,-180 518,-180"/>
<text text-anchor="middle" x="498" y="-159.5" font-family="sans" font-size="10.00" fill="#000000">Summary</text>
</g>
<!-- 12&#45;&gt;16 -->
<g id="edge31" class="edge">
<title>12&#45;&gt;16</title>
<path fill="none" stroke="#c0c0c0" stroke-width="2" d="M438.7598,-287.9473C449.9446,-278.3559 462.6333,-265.7227 471,-252 482.6251,-232.9329 489.538,-208.5222 493.4541,-189.9351"/>
<polygon fill="#c0c0c0" stroke="#c0c0c0" stroke-width="2" points="496.9101,-190.498 495.3794,-180.0143 490.0383,-189.1643 496.9101,-190.498"/>
</g>
<!-- 13&#45;&gt;0 -->
<g id="edge11" class="edge">
<title>13&#45;&gt;0</title>
<path fill="none" stroke="#c0c0c0" stroke-width="2" d="M708.5939,-215.8618C706.8129,-182.2565 698.0007,-110.2629 656,-72 626.8961,-45.4862 514.6229,-29.0097 455.2707,-21.9702"/>
<polygon fill="#c0c0c0" stroke="#c0c0c0" stroke-width="2" points="455.5174,-18.4755 445.1817,-20.8041 454.7136,-25.4292 455.5174,-18.4755"/>
</g>
<!-- 13&#45;&gt;16 -->
<g id="edge33" class="edge">
<title>13&#45;&gt;16</title>
<path fill="none" stroke="#c0c0c0" stroke-width="2" d="M670.2993,-220.7941C633.3853,-208.1978 577.9362,-189.2768 539.9729,-176.3225"/>
<polygon fill="#c0c0c0" stroke="#c0c0c0" stroke-width="2" points="540.8346,-172.9185 530.2401,-173.0014 538.5739,-179.5434 540.8346,-172.9185"/>
</g>
<!-- 14&#45;&gt;0 -->
<g id="edge12" class="edge">
<title>14&#45;&gt;0</title>
<path fill="none" stroke="#c0c0c0" stroke-width="2" d="M433.5798,-215.9555C430.6173,-178.3144 423.7601,-91.1867 420.2135,-46.1246"/>
<polygon fill="#c0c0c0" stroke="#c0c0c0" stroke-width="2" points="423.702,-45.8396 419.4281,-36.1451 416.7236,-46.3889 423.702,-45.8396"/>
</g>
<!-- 14&#45;&gt;16 -->
<g id="edge34" class="edge">
<title>14&#45;&gt;16</title>
<path fill="none" stroke="#c0c0c0" stroke-width="2" d="M450.8976,-215.8314C458.2278,-207.454 467.066,-197.3531 475.0969,-188.1749"/>
<polygon fill="#c0c0c0" stroke="#c0c0c0" stroke-width="2" points="477.9373,-190.2438 481.8884,-180.4133 472.6693,-185.6343 477.9373,-190.2438"/>
</g>
<!-- 15&#45;&gt;0 -->
<g id="edge5" class="edge">
<title>15&#45;&gt;0</title>
<path fill="none" stroke="#c0c0c0" stroke-width="2" d="M536.4033,-287.9957C554.602,-246.0845 592.5005,-140.3728 547,-72 526.7859,-41.6246 485.8498,-28.3031 455.4867,-22.4807"/>
<polygon fill="#c0c0c0" stroke="#c0c0c0" stroke-width="2" points="455.6878,-18.964 445.2392,-20.7183 454.5013,-25.8627 455.6878,-18.964"/>
</g>
<!-- 15&#45;&gt;14 -->
<g id="edge29" class="edge">
<title>15&#45;&gt;14</title>
<path fill="none" stroke="#c0c0c0" stroke-width="2" d="M504.5322,-287.8314C492.9673,-278.8779 478.8596,-267.9558 466.3817,-258.2955"/>
<polygon fill="#c0c0c0" stroke="#c0c0c0" stroke-width="2" points="468.5102,-255.5171 458.4603,-252.1628 464.225,-261.0521 468.5102,-255.5171"/>
</g>
<!-- 15&#45;&gt;16 -->
<g id="edge32" class="edge">
<title>15&#45;&gt;16</title>
<path fill="none" stroke="#c0c0c0" stroke-width="2" d="M524.2005,-287.7623C519.061,-263.0928 509.8458,-218.8598 503.8277,-189.9731"/>
<polygon fill="#c0c0c0" stroke="#c0c0c0" stroke-width="2" points="507.2347,-189.1656 501.7687,-180.0896 500.3819,-190.5933 507.2347,-189.1656"/>
</g>
<!-- 16&#45;&gt;0 -->
<g id="edge10" class="edge">
<title>16&#45;&gt;0</title>
<path fill="none" stroke="#c0c0c0" stroke-width="2" d="M487.8679,-143.7623C473.9824,-118.7682 448.9402,-73.6924 432.9116,-44.8409"/>
<polygon fill="#c0c0c0" stroke="#c0c0c0" stroke-width="2" points="435.9658,-43.1314 428.0498,-36.0896 429.8467,-46.531 435.9658,-43.1314"/>
</g>
<!-- 17 -->
<g id="node18" class="node">
<title>17</title>
<path fill="none" stroke="#c6d856" stroke-width="2" d="M526,-108C526,-108 496,-108 496,-108 490,-108 484,-102 484,-96 484,-96 484,-84 484,-84 484,-78 490,-72 496,-72 496,-72 526,-72 526,-72 532,-72 538,-78 538,-84 538,-84 538,-96 538,-96 538,-102 532,-108 526,-108"/>
<text text-anchor="middle" x="511" y="-87.5" font-family="sans" font-size="10.00" fill="#000000">plot</text>
</g>
<!-- 16&#45;&gt;17 -->
<g id="edge35" class="edge">
<title>16&#45;&gt;17</title>
<path fill="none" stroke="#c0c0c0" stroke-width="2" d="M501.2804,-143.8314C502.6708,-136.131 504.3241,-126.9743 505.8692,-118.4166"/>
<polygon fill="#c0c0c0" stroke="#c0c0c0" stroke-width="2" points="509.3428,-118.8761 507.6754,-108.4133 502.4542,-117.6322 509.3428,-118.8761"/>
</g>
<!-- 17&#45;&gt;0 -->
<g id="edge8" class="edge">
<title>17&#45;&gt;0</title>
<path fill="none" stroke="#c0c0c0" stroke-width="2" d="M487.5322,-71.8314C475.9673,-62.8779 461.8596,-51.9558 449.3817,-42.2955"/>
<polygon fill="#c0c0c0" stroke="#c0c0c0" stroke-width="2" points="451.5102,-39.5171 441.4603,-36.1628 447.225,-45.0521 451.5102,-39.5171"/>
</g>
</g>
</svg>
