<?xml version="1.0" encoding="UTF-8" standalone="no"?>
<!DOCTYPE svg PUBLIC "-//W3C//DTD SVG 1.1//EN"
 "http://www.w3.org/Graphics/SVG/1.1/DTD/svg11.dtd">
<!-- Generated by graphviz version 7.1.0 (20230122.1345)
 -->
<!-- Title: snakemake_dag Pages: 1 -->
<svg width="363pt" height="332pt"
 viewBox="0.00 0.00 362.93 332.00" xmlns="http://www.w3.org/2000/svg" xmlns:xlink="http://www.w3.org/1999/xlink">
<g id="graph0" class="graph" transform="scale(1 1) rotate(0) translate(4 328)">
<title>snakemake_dag</title>
<polygon fill="white" stroke="none" points="-4,4 -4,-328 358.93,-328 358.93,4 -4,4"/>
<!-- 0 -->
<g id="node1" class="node">
<title>0</title>
<path fill="none" stroke="#d85656" stroke-width="2" d="M182.93,-36C182.93,-36 152.93,-36 152.93,-36 146.93,-36 140.93,-30 140.93,-24 140.93,-24 140.93,-12 140.93,-12 140.93,-6 146.93,0 152.93,0 152.93,0 182.93,0 182.93,0 188.93,0 194.93,-6 194.93,-12 194.93,-12 194.93,-24 194.93,-24 194.93,-30 188.93,-36 182.93,-36"/>
<text text-anchor="middle" x="167.93" y="-15.5" font-family="sans" font-size="10.00">all</text>
</g>
<!-- 1 -->
<g id="node2" class="node">
<title>1</title>
<path fill="none" stroke="#70d856" stroke-width="2" d="M156.93,-324C156.93,-324 84.93,-324 84.93,-324 78.93,-324 72.93,-318 72.93,-312 72.93,-312 72.93,-300 72.93,-300 72.93,-294 78.93,-288 84.93,-288 84.93,-288 156.93,-288 156.93,-288 162.93,-288 168.93,-294 168.93,-300 168.93,-300 168.93,-312 168.93,-312 168.93,-318 162.93,-324 156.93,-324"/>
<text text-anchor="middle" x="120.93" y="-303.5" font-family="sans" font-size="10.00">coverage_report</text>
</g>
<!-- 1&#45;&gt;0 -->
<g id="edge3" class="edge">
<title>1&#45;&gt;0</title>
<path fill="none" stroke="grey" stroke-width="2" d="M71.96,-287.36C56.34,-279.14 40.82,-267.63 31.93,-252 -7.6,-182.45 -13.22,-138.05 31.93,-72 53.23,-40.83 95.8,-27.99 127.66,-22.7"/>
<polygon fill="grey" stroke="grey" stroke-width="2" points="127.74,-26.23 137.15,-21.35 126.75,-19.3 127.74,-26.23"/>
</g>
<!-- 4 -->
<g id="node5" class="node">
<title>4</title>
<path fill="none" stroke="#56d873" stroke-width="2" d="M287.93,-252C287.93,-252 257.93,-252 257.93,-252 251.93,-252 245.93,-246 245.93,-240 245.93,-240 245.93,-228 245.93,-228 245.93,-222 251.93,-216 257.93,-216 257.93,-216 287.93,-216 287.93,-216 293.93,-216 299.93,-222 299.93,-228 299.93,-228 299.93,-240 299.93,-240 299.93,-246 293.93,-252 287.93,-252"/>
<text text-anchor="middle" x="272.93" y="-231.5" font-family="sans" font-size="10.00">multiqc</text>
</g>
<!-- 1&#45;&gt;4 -->
<g id="edge10" class="edge">
<title>1&#45;&gt;4</title>
<path fill="none" stroke="grey" stroke-width="2" d="M159.68,-287.15C182.34,-276.72 210.88,-263.57 233.64,-253.09"/>
<polygon fill="grey" stroke="grey" stroke-width="2" points="234.91,-256.36 242.53,-249 231.98,-250 234.91,-256.36"/>
</g>
<!-- 6 -->
<g id="node7" class="node">
<title>6</title>
<path fill="none" stroke="#5692d8" stroke-width="2" d="M232.93,-180C232.93,-180 192.93,-180 192.93,-180 186.93,-180 180.93,-174 180.93,-168 180.93,-168 180.93,-156 180.93,-156 180.93,-150 186.93,-144 192.93,-144 192.93,-144 232.93,-144 232.93,-144 238.93,-144 244.93,-150 244.93,-156 244.93,-156 244.93,-168 244.93,-168 244.93,-174 238.93,-180 232.93,-180"/>
<text text-anchor="middle" x="212.93" y="-159.5" font-family="sans" font-size="10.00">Summary</text>
</g>
<!-- 1&#45;&gt;6 -->
<g id="edge12" class="edge">
<title>1&#45;&gt;6</title>
<path fill="none" stroke="grey" stroke-width="2" d="M134.73,-287.16C142.4,-277.02 151.97,-263.99 159.93,-252 172.93,-232.4 186.49,-209.59 196.63,-191.97"/>
<polygon fill="grey" stroke="grey" stroke-width="2" points="199.64,-193.75 201.56,-183.33 193.56,-190.28 199.64,-193.75"/>
</g>
<!-- 2 -->
<g id="node3" class="node">
<title>2</title>
<path fill="none" stroke="#56c9d8" stroke-width="2" d="M258.93,-324C258.93,-324 198.93,-324 198.93,-324 192.93,-324 186.93,-318 186.93,-312 186.93,-312 186.93,-300 186.93,-300 186.93,-294 192.93,-288 198.93,-288 198.93,-288 258.93,-288 258.93,-288 264.93,-288 270.93,-294 270.93,-300 270.93,-300 270.93,-312 270.93,-312 270.93,-318 264.93,-324 258.93,-324"/>
<text text-anchor="middle" x="228.93" y="-303.5" font-family="sans" font-size="10.00">kraken_report</text>
</g>
<!-- 2&#45;&gt;0 -->
<g id="edge6" class="edge">
<title>2&#45;&gt;0</title>
<path fill="none" stroke="grey" stroke-width="2" d="M186.09,-290.67C183.33,-289.77 180.59,-288.87 177.93,-288 127.81,-271.67 96.03,-294.55 64.93,-252 15.95,-185 94.12,-91.03 139.35,-45.63"/>
<polygon fill="grey" stroke="grey" stroke-width="2" points="141.6,-48.33 146.28,-38.83 136.7,-43.33 141.6,-48.33"/>
</g>
<!-- 2&#45;&gt;4 -->
<g id="edge9" class="edge">
<title>2&#45;&gt;4</title>
<path fill="none" stroke="grey" stroke-width="2" d="M240.03,-287.34C244.53,-280.18 249.84,-271.73 254.87,-263.73"/>
<polygon fill="grey" stroke="grey" stroke-width="2" points="257.71,-265.79 260.07,-255.46 251.78,-262.07 257.71,-265.79"/>
</g>
<!-- 2&#45;&gt;6 -->
<g id="edge15" class="edge">
<title>2&#45;&gt;6</title>
<path fill="none" stroke="grey" stroke-width="2" d="M226.9,-287.02C224.26,-263.54 219.59,-222.11 216.38,-193.64"/>
<polygon fill="grey" stroke="grey" stroke-width="2" points="219.88,-193.39 215.28,-183.85 212.92,-194.18 219.88,-193.39"/>
</g>
<!-- 3 -->
<g id="node4" class="node">
<title>3</title>
<path fill="none" stroke="#d88d56" stroke-width="2" d="M139.43,-252C139.43,-252 86.43,-252 86.43,-252 80.43,-252 74.43,-246 74.43,-240 74.43,-240 74.43,-228 74.43,-228 74.43,-222 80.43,-216 86.43,-216 86.43,-216 139.43,-216 139.43,-216 145.43,-216 151.43,-222 151.43,-228 151.43,-228 151.43,-240 151.43,-240 151.43,-246 145.43,-252 139.43,-252"/>
<text text-anchor="middle" x="112.93" y="-231.5" font-family="sans" font-size="10.00">skani_report</text>
</g>
<!-- 3&#45;&gt;0 -->
<g id="edge1" class="edge">
<title>3&#45;&gt;0</title>
<path fill="none" stroke="grey" stroke-width="2" d="M112.32,-215.45C111.86,-185.17 113.43,-121.58 131.93,-72 135.12,-63.46 139.95,-54.95 145.06,-47.34"/>
<polygon fill="grey" stroke="grey" stroke-width="2" points="147.79,-49.53 150.79,-39.37 142.11,-45.44 147.79,-49.53"/>
</g>
<!-- 3&#45;&gt;6 -->
<g id="edge11" class="edge">
<title>3&#45;&gt;6</title>
<path fill="none" stroke="grey" stroke-width="2" d="M138.42,-215.15C150.18,-206.93 164.33,-197.02 177.13,-188.06"/>
<polygon fill="grey" stroke="grey" stroke-width="2" points="178.82,-191.15 185,-182.55 174.8,-185.42 178.82,-191.15"/>
</g>
<!-- 4&#45;&gt;0 -->
<g id="edge4" class="edge">
<title>4&#45;&gt;0</title>
<path fill="none" stroke="grey" stroke-width="2" d="M270.77,-215.04C266.26,-183.59 253.51,-117.53 221.93,-72 215.42,-62.61 207.1,-53.49 198.95,-45.53"/>
<polygon fill="grey" stroke="grey" stroke-width="2" points="201.49,-43.11 191.8,-38.84 196.71,-48.23 201.49,-43.11"/>
</g>
<!-- 4&#45;&gt;6 -->
<g id="edge13" class="edge">
<title>4&#45;&gt;6</title>
<path fill="none" stroke="grey" stroke-width="2" d="M257.79,-215.34C251.37,-207.85 243.74,-198.95 236.61,-190.63"/>
<polygon fill="grey" stroke="grey" stroke-width="2" points="239.41,-188.51 230.24,-183.2 234.09,-193.07 239.41,-188.51"/>
</g>
<!-- 5 -->
<g id="node6" class="node">
<title>5</title>
<path fill="none" stroke="#56d8a9" stroke-width="2" d="M342.93,-324C342.93,-324 312.93,-324 312.93,-324 306.93,-324 300.93,-318 300.93,-312 300.93,-312 300.93,-300 300.93,-300 300.93,-294 306.93,-288 312.93,-288 312.93,-288 342.93,-288 342.93,-288 348.93,-288 354.93,-294 354.93,-300 354.93,-300 354.93,-312 354.93,-312 354.93,-318 348.93,-324 342.93,-324"/>
<text text-anchor="middle" x="327.93" y="-303.5" font-family="sans" font-size="10.00">mlst</text>
</g>
<!-- 5&#45;&gt;0 -->
<g id="edge5" class="edge">
<title>5&#45;&gt;0</title>
<path fill="none" stroke="grey" stroke-width="2" d="M331.57,-287.25C334.61,-269.02 337.49,-240.01 330.93,-216 311.35,-144.31 296.78,-126.19 245.93,-72 234.64,-59.97 220.15,-49.2 206.73,-40.56"/>
<polygon fill="grey" stroke="grey" stroke-width="2" points="208.73,-37.68 198.38,-35.41 205.05,-43.63 208.73,-37.68"/>
</g>
<!-- 5&#45;&gt;4 -->
<g id="edge8" class="edge">
<title>5&#45;&gt;4</title>
<path fill="none" stroke="grey" stroke-width="2" d="M314.05,-287.34C308.23,-279.93 301.33,-271.14 294.85,-262.9"/>
<polygon fill="grey" stroke="grey" stroke-width="2" points="297.8,-260.98 288.86,-255.28 292.29,-265.31 297.8,-260.98"/>
</g>
<!-- 5&#45;&gt;6 -->
<g id="edge14" class="edge">
<title>5&#45;&gt;6</title>
<path fill="none" stroke="grey" stroke-width="2" d="M328.32,-287.19C327.87,-267.86 324.46,-236.94 308.93,-216 296.18,-198.82 276.12,-186.51 257.63,-178.1"/>
<polygon fill="grey" stroke="grey" stroke-width="2" points="259.17,-174.95 248.59,-174.3 256.45,-181.4 259.17,-174.95"/>
</g>
<!-- 6&#45;&gt;0 -->
<g id="edge7" class="edge">
<title>6&#45;&gt;0</title>
<path fill="none" stroke="grey" stroke-width="2" d="M213.66,-143.04C213.83,-124.64 212.47,-95.5 203.93,-72 200.81,-63.43 196,-54.92 190.9,-47.3"/>
<polygon fill="grey" stroke="grey" stroke-width="2" points="193.84,-45.39 185.15,-39.33 188.17,-49.49 193.84,-45.39"/>
</g>
<!-- 7 -->
<g id="node8" class="node">
<title>7</title>
<path fill="none" stroke="#afd856" stroke-width="2" d="M182.93,-108C182.93,-108 152.93,-108 152.93,-108 146.93,-108 140.93,-102 140.93,-96 140.93,-96 140.93,-84 140.93,-84 140.93,-78 146.93,-72 152.93,-72 152.93,-72 182.93,-72 182.93,-72 188.93,-72 194.93,-78 194.93,-84 194.93,-84 194.93,-96 194.93,-96 194.93,-102 188.93,-108 182.93,-108"/>
<text text-anchor="middle" x="167.93" y="-87.5" font-family="sans" font-size="10.00">plot</text>
</g>
<!-- 6&#45;&gt;7 -->
<g id="edge16" class="edge">
<title>6&#45;&gt;7</title>
<path fill="none" stroke="grey" stroke-width="2" d="M201.57,-143.34C196.97,-136.18 191.54,-127.73 186.4,-119.73"/>
<polygon fill="grey" stroke="grey" stroke-width="2" points="189.43,-117.97 181.07,-111.45 183.54,-121.75 189.43,-117.97"/>
</g>
<!-- 7&#45;&gt;0 -->
<g id="edge2" class="edge">
<title>7&#45;&gt;0</title>
<path fill="none" stroke="grey" stroke-width="2" d="M167.93,-71.34C167.93,-64.75 167.93,-57.08 167.93,-49.67"/>
<polygon fill="grey" stroke="grey" stroke-width="2" points="171.43,-49.93 167.93,-39.93 164.43,-49.93 171.43,-49.93"/>
</g>
</g>
</svg>
